<svg width="18" height="18" viewBox="0 0 18 18" fill="none" xmlns="http://www.w3.org/2000/svg">
<path d="M8.99984 0.666626C4.39634 0.666626 0.666504 4.39646 0.666504 8.99996C0.666504 13.6035 4.39634 17.3333 8.99984 17.3333C13.6033 17.3333 17.3332 13.6035 17.3332 8.99996C17.3332 4.39646 13.6033 0.666626 8.99984 0.666626ZM12.1077 11.1841L11.4357 12.0242C11.3916 12.0793 11.337 12.1252 11.2752 12.1593C11.2133 12.1933 11.1454 12.2149 11.0752 12.2227C11.005 12.2305 10.934 12.2244 10.8662 12.2047C10.7984 12.1851 10.7351 12.1523 10.6799 12.1082L8.4286 10.4375C8.2713 10.3115 8.14432 10.1518 8.05708 9.97016C7.96983 9.78852 7.92454 9.58958 7.92457 9.38806V4.16125C7.92457 4.01866 7.98121 3.88191 8.08204 3.78109C8.18286 3.68026 8.31961 3.62362 8.4622 3.62362H9.53747C9.68006 3.62362 9.81681 3.68026 9.91764 3.78109C10.0185 3.88191 10.0751 4.01866 10.0751 4.16125V8.99996L12.024 10.4281C12.0792 10.4722 12.1251 10.5268 12.1592 10.5886C12.1932 10.6505 12.2148 10.7185 12.2225 10.7887C12.2303 10.859 12.2242 10.93 12.2045 10.9978C12.1848 11.0657 12.1519 11.129 12.1077 11.1841Z" fill="#BF1014"/>
</svg>
