<svg width="20" height="14" viewBox="0 0 20 14" fill="none" xmlns="http://www.w3.org/2000/svg">
<path d="M19.1667 0.333008H3.05556C2.59531 0.333008 2.22222 0.706098 2.22222 1.16634V1.44412H0.833333C0.37309 1.44412 0 1.81721 0 2.27745V11.7219C0 12.7958 0.870556 13.6663 1.94444 13.6663H18.3333C19.2538 13.6663 20 12.9202 20 11.9997V1.16634C20 0.706098 19.6269 0.333008 19.1667 0.333008ZM1.94444 11.9997C1.87077 11.9997 1.80012 11.9704 1.74803 11.9183C1.69593 11.8662 1.66667 11.7956 1.66667 11.7219V3.11079H2.22222V11.7219C2.22222 11.7956 2.19296 11.8662 2.14086 11.9183C2.08877 11.9704 2.01812 11.9997 1.94444 11.9997ZM10.1389 11.4441H4.86111C4.63101 11.4441 4.44444 11.2576 4.44444 11.0275V10.7497C4.44444 10.5196 4.63101 10.333 4.86111 10.333H10.1389C10.369 10.333 10.5556 10.5196 10.5556 10.7497V11.0275C10.5556 11.2576 10.369 11.4441 10.1389 11.4441ZM17.3611 11.4441H12.0833C11.8532 11.4441 11.6667 11.2576 11.6667 11.0275V10.7497C11.6667 10.5196 11.8532 10.333 12.0833 10.333H17.3611C17.5912 10.333 17.7778 10.5196 17.7778 10.7497V11.0275C17.7778 11.2576 17.5912 11.4441 17.3611 11.4441ZM10.1389 8.11079H4.86111C4.63101 8.11079 4.44444 7.92422 4.44444 7.69412V7.41634C4.44444 7.18624 4.63101 6.99967 4.86111 6.99967H10.1389C10.369 6.99967 10.5556 7.18624 10.5556 7.41634V7.69412C10.5556 7.92422 10.369 8.11079 10.1389 8.11079ZM17.3611 8.11079H12.0833C11.8532 8.11079 11.6667 7.92422 11.6667 7.69412V7.41634C11.6667 7.18624 11.8532 6.99967 12.0833 6.99967H17.3611C17.5912 6.99967 17.7778 7.18624 17.7778 7.41634V7.69412C17.7778 7.92422 17.5912 8.11079 17.3611 8.11079ZM17.3611 4.77745H4.86111C4.63101 4.77745 4.44444 4.59089 4.44444 4.36079V2.9719C4.44444 2.74179 4.63101 2.55523 4.86111 2.55523H17.3611C17.5912 2.55523 17.7778 2.74179 17.7778 2.9719V4.36079C17.7778 4.59089 17.5912 4.77745 17.3611 4.77745Z" fill="#BF1014"/>
</svg>
