<svg width="16" height="20" viewBox="0 0 16 20" fill="none" xmlns="http://www.w3.org/2000/svg">
<path d="M9.25 5.3125V0H1.4375C0.917969 0 0.5 0.417969 0.5 0.9375V19.0625C0.5 19.582 0.917969 20 1.4375 20H14.5625C15.082 20 15.5 19.582 15.5 19.0625V6.25H10.1875C9.67188 6.25 9.25 5.82812 9.25 5.3125ZM11.4805 10H12.4141C12.7148 10 12.9375 10.2773 12.8711 10.5742L11.3867 17.1367C11.3398 17.3516 11.1484 17.5 10.9297 17.5H9.44531C9.23047 17.5 9.04297 17.3516 8.99219 17.1445C7.98438 13.1016 8.17969 13.9727 7.99219 12.8281H7.97266C7.92969 13.3867 7.87891 13.5078 6.97266 17.1445C6.92188 17.3516 6.73438 17.5 6.51953 17.5H5.07031C4.85156 17.5 4.66016 17.3477 4.61328 17.1328L3.13672 10.5703C3.07031 10.2773 3.29297 10 3.59375 10H4.55078C4.77344 10 4.96875 10.1563 5.01172 10.3789C5.62109 13.4258 5.79688 14.6562 5.83203 15.1523C5.89453 14.7539 6.11719 13.875 6.98047 10.3594C7.03125 10.1484 7.21875 10.0039 7.4375 10.0039H8.57422C8.79297 10.0039 8.98047 10.1523 9.03125 10.3633C9.96875 14.2852 10.1562 15.207 10.1875 15.418C10.1797 14.9805 10.0859 14.7227 11.0312 10.3711C11.0703 10.1523 11.2617 10 11.4805 10ZM15.5 4.76172V5H10.5V0H10.7383C10.9883 0 11.2266 0.0976562 11.4023 0.273438L15.2266 4.10156C15.4023 4.27734 15.5 4.51562 15.5 4.76172Z" fill="#191B28"/>
</svg>
