<svg width="18" height="18" viewBox="0 0 18 18" fill="none" xmlns="http://www.w3.org/2000/svg">
<path d="M11.9155 3.88221C10.1712 3.88221 8.73051 2.74995 6.53737 2.74995C5.72504 2.74995 4.99737 2.89266 4.32237 3.141C4.41591 2.89669 4.45573 2.63509 4.4391 2.37401C4.38141 1.44835 3.62259 0.705872 2.6959 0.668177C1.65446 0.625794 0.796875 1.4575 0.796875 2.48953C0.796875 3.10887 1.10602 3.65571 1.57813 3.98514V16.552C1.57813 16.9835 1.9279 17.3333 2.35938 17.3333H2.88021C3.31169 17.3333 3.66146 16.9835 3.66146 16.552V13.4791C4.58304 13.0864 5.73119 12.759 7.38656 12.759C9.13096 12.759 10.5716 13.8913 12.7647 13.8913C14.3327 13.8913 15.5859 13.3609 16.7525 12.5613C17.0352 12.3675 17.2031 12.0459 17.2031 11.7032V3.78983C17.2031 3.02834 16.4131 2.52453 15.7225 2.84529C14.6047 3.36444 13.2338 3.88221 11.9155 3.88221Z" fill="#BF1014"/>
</svg>
