<svg width="20" height="14" viewBox="0 0 20 14" fill="none" xmlns="http://www.w3.org/2000/svg">
<path d="M19.8852 8.2529L17.3705 12.5638C17.1748 12.8993 16.8946 13.1777 16.5578 13.3711C16.221 13.5646 15.8394 13.6663 15.451 13.6663H1.56337C0.920209 13.6663 0.519479 12.9687 0.843542 12.4131L3.35826 8.10218C3.55397 7.76669 3.83418 7.48835 4.17098 7.29491C4.50777 7.10147 4.88938 6.99967 5.27778 6.99968H19.1654C19.8086 6.99968 20.2093 7.69735 19.8852 8.2529ZM5.27778 5.88856H16.6667V4.2219C16.6667 3.30141 15.9205 2.55523 15 2.55523H9.44445L7.22222 0.333008H1.66667C0.746181 0.333008 0 1.07919 0 1.99967V11.6541L2.39851 7.54231C2.99354 6.52224 4.09684 5.88856 5.27778 5.88856Z" fill="#191B28"/>
</svg>
