<svg width="21" height="18" viewBox="0 0 21 18" fill="none" xmlns="http://www.w3.org/2000/svg">
<path d="M10.5 0.111328C8.08368 0.111328 6.125 2.07001 6.125 4.48633C6.125 6.4398 8.98438 10.0002 10.0799 11.2926C10.3017 11.5544 10.6986 11.5544 10.9201 11.2926C12.0156 10.0002 14.875 6.4398 14.875 4.48633C14.875 2.07001 12.9163 0.111328 10.5 0.111328ZM10.5 5.94466C9.69444 5.94466 9.04167 5.29188 9.04167 4.48633C9.04167 3.68077 9.69444 3.02799 10.5 3.02799C11.3056 3.02799 11.9583 3.68077 11.9583 4.48633C11.9583 5.29188 11.3056 5.94466 10.5 5.94466ZM1.19861 7.60959C0.992423 7.69206 0.81567 7.83441 0.691149 8.01829C0.566628 8.20216 0.500049 8.41912 0.5 8.64119L0.5 17.3329C0.5 17.7259 0.896875 17.9947 1.26181 17.8488L6.05556 15.6669V7.57383C5.74861 7.01897 5.49757 6.47869 5.31771 5.96202L1.19861 7.60959ZM10.5 12.5999C10.0115 12.5999 9.54931 12.3853 9.23229 12.011C8.54965 11.2054 7.82361 10.2881 7.16667 9.34709V15.6665L13.8333 17.8888V9.34744C13.1764 10.2881 12.4507 11.2058 11.7677 12.0113C11.4507 12.3853 10.9885 12.5999 10.5 12.5999ZM19.7382 5.70716L14.9444 7.88911V17.8891L19.8014 15.9464C20.0076 15.864 20.1844 15.7216 20.3089 15.5377C20.4334 15.3539 20.5 15.1369 20.5 14.9148V6.22313C20.5 5.83008 20.1031 5.56133 19.7382 5.70716Z" fill="#E79000"/>
</svg>
