<svg width="21" height="18" viewBox="0 0 21 18" fill="none" xmlns="http://www.w3.org/2000/svg">
<path d="M10.5 0.111084C8.08368 0.111084 6.125 2.06976 6.125 4.48608C6.125 6.43956 8.98438 9.99997 10.0799 11.2923C10.3017 11.5541 10.6986 11.5541 10.9201 11.2923C12.0156 9.99997 14.875 6.43956 14.875 4.48608C14.875 2.06976 12.9163 0.111084 10.5 0.111084ZM10.5 5.94442C9.69444 5.94442 9.04167 5.29164 9.04167 4.48608C9.04167 3.68053 9.69444 3.02775 10.5 3.02775C11.3056 3.02775 11.9583 3.68053 11.9583 4.48608C11.9583 5.29164 11.3056 5.94442 10.5 5.94442ZM1.19861 7.60935C0.992423 7.69182 0.81567 7.83417 0.691149 8.01804C0.566628 8.20191 0.500049 8.41888 0.5 8.64095L0.5 17.3326C0.5 17.7257 0.896875 17.9944 1.26181 17.8486L6.05556 15.6666V7.57358C5.74861 7.01872 5.49757 6.47845 5.31771 5.96178L1.19861 7.60935ZM10.5 12.5996C10.0115 12.5996 9.54931 12.385 9.23229 12.0107C8.54965 11.2052 7.82361 10.2878 7.16667 9.34685V15.6663L13.8333 17.8885V9.3472C13.1764 10.2878 12.4507 11.2055 11.7677 12.0111C11.4507 12.385 10.9885 12.5996 10.5 12.5996ZM19.7382 5.70692L14.9444 7.88886V17.8889L19.8014 15.9462C20.0076 15.8637 20.1844 15.7214 20.3089 15.5375C20.4334 15.3536 20.5 15.1366 20.5 14.9146V6.22289C20.5 5.82983 20.1031 5.56108 19.7382 5.70692Z" fill="#E79000"/>
</svg>
