<svg width="20" height="16" viewBox="0 0 20 16" fill="none" xmlns="http://www.w3.org/2000/svg">
<path d="M18.125 15.5H1.875C0.839453 15.5 0 14.6605 0 13.625V2.375C0 1.33945 0.839453 0.5 1.875 0.5H18.125C19.1605 0.5 20 1.33945 20 2.375V13.625C20 14.6605 19.1605 15.5 18.125 15.5ZM4.375 2.6875C3.16688 2.6875 2.1875 3.66688 2.1875 4.875C2.1875 6.08313 3.16688 7.0625 4.375 7.0625C5.58313 7.0625 6.5625 6.08313 6.5625 4.875C6.5625 3.66688 5.58313 2.6875 4.375 2.6875ZM2.5 13H17.5V8.625L14.0814 5.20645C13.8984 5.0234 13.6016 5.0234 13.4185 5.20645L8.125 10.5L5.95645 8.33144C5.7734 8.1484 5.4766 8.1484 5.29352 8.33144L2.5 11.125V13Z" fill="#75767E"/>
</svg>
