<svg width="13" height="20" viewBox="0 0 13 20" fill="none" xmlns="http://www.w3.org/2000/svg">
<path d="M5.25009 12.3807V18.5015L6.11026 19.7914C6.29581 20.0695 6.7048 20.0695 6.89035 19.7914L7.75013 18.5015V12.3807C7.34427 12.4557 6.92746 12.5002 6.50011 12.5002C6.07276 12.5002 5.65595 12.4557 5.25009 12.3807ZM6.50011 0C3.39341 0 0.875 2.51841 0.875 5.62511C0.875 8.73181 3.39341 11.2502 6.50011 11.2502C9.60681 11.2502 12.1252 8.73181 12.1252 5.62511C12.1252 2.51841 9.60681 0 6.50011 0ZM6.50011 2.96881C5.03524 2.96881 3.84381 4.16024 3.84381 5.62511C3.84381 5.88371 3.63365 6.09387 3.37505 6.09387C3.11645 6.09387 2.90629 5.88371 2.90629 5.62511C2.90629 3.64343 4.51882 2.03129 6.50011 2.03129C6.75871 2.03129 6.96887 2.24145 6.96887 2.50005C6.96887 2.75865 6.75871 2.96881 6.50011 2.96881Z" fill="white"/>
</svg>
