<svg width="18" height="12" viewBox="0 0 18 12" fill="none" xmlns="http://www.w3.org/2000/svg">
<path d="M5.6665 5.99996C7.27848 5.99996 8.58317 4.69527 8.58317 3.08329C8.58317 1.47131 7.27848 0.166626 5.6665 0.166626C4.05452 0.166626 2.74984 1.47131 2.74984 3.08329C2.74984 4.69527 4.05452 5.99996 5.6665 5.99996ZM7.6665 6.83329H7.45036C6.90869 7.09371 6.30713 7.24996 5.6665 7.24996C5.02588 7.24996 4.42692 7.09371 3.88265 6.83329H3.6665C2.01025 6.83329 0.666504 8.17704 0.666504 9.83329V10.5833C0.666504 11.2734 1.2264 11.8333 1.9165 11.8333H9.4165C10.1066 11.8333 10.6665 11.2734 10.6665 10.5833V9.83329C10.6665 8.17704 9.32275 6.83329 7.6665 6.83329ZM13.1665 5.99996C14.5467 5.99996 15.6665 4.88017 15.6665 3.49996C15.6665 2.11975 14.5467 0.999959 13.1665 0.999959C11.7863 0.999959 10.6665 2.11975 10.6665 3.49996C10.6665 4.88017 11.7863 5.99996 13.1665 5.99996ZM14.4165 6.83329H14.3175C13.9556 6.95829 13.5728 7.04163 13.1665 7.04163C12.7603 7.04163 12.3774 6.95829 12.0155 6.83329H11.9165C11.3853 6.83329 10.8957 6.98694 10.466 7.23433C11.1014 7.91923 11.4998 8.82809 11.4998 9.83329V10.8333C11.4998 10.8906 11.4868 10.9453 11.4842 11H16.0832C16.7733 11 17.3332 10.4401 17.3332 9.74996C17.3332 8.13798 16.0285 6.83329 14.4165 6.83329Z" fill="#BF1014"/>
</svg>
