<svg width="20" height="15" viewBox="0 0 20 15" fill="none" xmlns="http://www.w3.org/2000/svg">
<path d="M16.8 6.58125C16.9281 6.24688 17 5.88125 17 5.5C17 3.84375 15.6562 2.5 14 2.5C13.3844 2.5 12.8094 2.6875 12.3344 3.00625C11.4688 1.50625 9.85312 0.5 8 0.5C5.2375 0.5 3 2.7375 3 5.5C3 5.58437 3.00312 5.66875 3.00625 5.75313C1.25625 6.36875 0 8.0375 0 10C0 12.4844 2.01562 14.5 4.5 14.5H16C18.2094 14.5 20 12.7094 20 10.5C20 8.56563 18.625 6.95 16.8 6.58125ZM12.2937 8.5H10.25V12C10.25 12.275 10.025 12.5 9.75 12.5H8.25C7.975 12.5 7.75 12.275 7.75 12V8.5H5.70625C5.25938 8.5 5.0375 7.9625 5.35313 7.64688L8.64688 4.35313C8.84063 4.15938 9.15937 4.15938 9.35312 4.35313L12.6469 7.64688C12.9625 7.9625 12.7375 8.5 12.2937 8.5Z" fill="white"/>
</svg>
