<svg width="20" height="16" viewBox="0 0 20 16" fill="none" xmlns="http://www.w3.org/2000/svg">
<path d="M19.375 5.5H17.5V3.625C17.5 3.28125 17.2188 3 16.875 3H15V1.125C15 0.78125 14.7188 0.5 14.375 0.5H5.625C5.28125 0.5 5 0.78125 5 1.125V3H3.125C2.78125 3 2.5 3.28125 2.5 3.625V5.5H0.625C0.28125 5.5 0 5.78125 0 6.125V14.875C0 15.2188 0.28125 15.5 0.625 15.5H3.75V10.5H5V15.5H7.5V10.5H8.75V15.5H11.25V10.5H12.5V15.5H15V10.5H16.25V15.5H19.375C19.7188 15.5 20 15.2188 20 14.875V6.125C20 5.78125 19.7188 5.5 19.375 5.5Z" fill="#75767E"/>
</svg>
